<?xml version="1.0" standalone="no"?>
<!DOCTYPE svg PUBLIC "-//W3C//DTD SVG 20010904//EN"
 "http://www.w3.org/TR/2001/REC-SVG-20010904/DTD/svg10.dtd">
<svg version="1.0" xmlns="http://www.w3.org/2000/svg"
 width="534.000000pt" height="720.000000pt" viewBox="0 0 534.000000 720.000000"
 preserveAspectRatio="xMidYMid meet">

<g transform="translate(0.000000,720.000000) scale(0.100000,-0.100000)"
fill="#000000" stroke="none">
<path d="M0 3600 l0 -3600 2670 0 2670 0 0 3600 0 3600 -2670 0 -2670 0 0
-3600z m4945 0 l0 -3205 -2275 0 -2275 0 -3 3195 c-1 1757 0 3201 3 3208 3 10
464 12 2277 10 l2273 -3 0 -3205z"/>
<path d="M4273 6499 c-85 -14 -159 -47 -213 -96 -69 -62 -92 -110 -98 -204
-10 -174 63 -264 298 -368 178 -78 226 -133 188 -215 -42 -93 -294 -88 -438 9
l-51 34 3 -127 3 -127 70 -24 c57 -20 95 -25 210 -29 253 -7 384 47 452 186
24 49 28 69 28 142 -1 165 -57 232 -289 344 -90 44 -163 86 -180 105 -80 85 4
181 159 181 63 0 163 -24 215 -50 22 -11 42 -20 45 -20 3 0 5 51 5 113 l0 114
-37 11 c-104 30 -260 39 -370 21z"/>
<path d="M660 5930 l0 -560 121 0 121 0 -4 396 c-2 267 0 390 7 379 6 -10 121
-187 256 -394 l246 -376 131 -3 132 -3 0 561 0 560 -120 0 -120 0 2 -385 c2
-212 0 -385 -4 -385 -4 0 -9 8 -12 18 -4 9 -113 181 -244 382 l-238 365 -137
3 -137 3 0 -561z"/>
<path d="M1790 5930 l0 -560 335 0 335 0 0 100 0 100 -210 0 -210 0 0 130 0
130 185 0 185 0 0 100 0 100 -185 0 -185 0 0 125 0 125 198 2 197 3 3 65 c4
63 9 46 141 -455 l137 -520 149 0 149 0 97 369 c54 203 102 390 106 415 l7 46
8 -52 c7 -45 141 -579 184 -731 l15 -53 141 3 142 3 146 555 147 555 -125 3
c-69 1 -126 1 -128 0 -6 -6 -164 -783 -164 -807 0 -14 -5 -33 -10 -41 -7 -11
-10 -8 -9 15 0 17 -44 211 -98 433 l-97 402 -136 0 -136 0 -112 -412 c-62
-227 -113 -424 -113 -438 -1 -14 -7 11 -14 55 -10 62 -133 657 -160 773 l-5
22 -455 0 -455 0 0 -560z"/>
<path d="M627 5003 c-4 -3 -7 -93 -7 -200 l0 -193 2030 0 2030 0 -2 198 -3
197 -2021 3 c-1111 1 -2024 -1 -2027 -5z"/>
<path d="M620 4045 l0 -195 2030 0 2030 0 0 195 0 195 -2030 0 -2030 0 0 -195z"/>
<path d="M620 3305 l0 -195 2030 0 2030 0 0 195 0 195 -2030 0 -2030 0 0 -195z"/>
<path d="M622 2543 l3 -198 2025 0 2025 0 3 198 2 197 -2030 0 -2030 0 2 -197z"/>
<path d="M620 1785 l0 -195 2030 0 2030 0 0 195 0 195 -2030 0 -2030 0 0 -195z"/>
<path d="M620 1025 l0 -195 2030 0 2030 0 0 195 0 195 -2030 0 -2030 0 0 -195z"/>
</g>
</svg>
